<?xml version="1.0" encoding="UTF-8"?>
<svg width="24px" height="24px" viewBox="0 0 24 24" version="1.1" xmlns="http://www.w3.org/2000/svg" xmlns:xlink="http://www.w3.org/1999/xlink">
    <title>Icons/Editor/attach_file</title>
    <defs>
        <path d="M16.5,5.99999995 L16.5,17.5 C16.5,19.71 14.71,21.5 12.5,21.5 C10.29,21.5 8.49999998,19.71 8.49999998,17.5 L8.49999998,4.99999995 C8.49999998,3.61999997 9.61999999,2.49999995 11,2.49999995 C12.38,2.49999995 13.5,3.61999997 13.5,4.99999995 L13.5,15.5 C13.5,16.05 13.05,16.5 12.5,16.5 C11.95,16.5 11.5,16.05 11.5,15.5 L11.5,5.99999995 L9.99999998,5.99999995 L9.99999998,15.5 C9.99999998,16.88 11.12,18 12.5,18 C13.88,18 15,16.88 15,15.5 L15,4.99999995 C15,2.78999996 13.21,0.999999954 11,0.999999954 C8.78999999,0.999999954 6.99999998,2.78999996 6.99999998,4.99999995 L6.99999998,17.5 C6.99999998,20.54 9.45999999,23 12.5,23 C15.54,23 18,20.54 18,17.5 L18,5.99999995 L16.5,5.99999995 L16.5,5.99999995 Z" id="path-1"></path>
    </defs>
    <g id="Icons/Editor/attach_file" stroke="none" stroke-width="1" fill="none" fill-rule="evenodd">
        <polygon id="Base" points="-5.00000112e-08 -4.99999828e-08 24 -4.99999828e-08 24 24.0000001 -5.00000112e-08 24.0000001"></polygon>
        <mask id="mask-2" fill="white">
            <use xlink:href="#path-1"></use>
        </mask>
        <g id="Icon"></g>
        <rect id="↳-🎨-Color" fill="#9E9E9E" mask="url(#mask-2)" x="0" y="0" width="24" height="24"></rect>
    </g>
</svg>