<?xml version="1.0" encoding="UTF-8"?>
<svg width="24px" height="24px" viewBox="0 0 24 24" version="1.1" xmlns="http://www.w3.org/2000/svg" xmlns:xlink="http://www.w3.org/1999/xlink">
    <title>Icons/Brand/Facebook</title>
    <defs>
        <path d="M15.8091826,3.985 L18,3.985 L18,0.169 C17.6220315,0.117 16.3221398,0 14.808266,0 C11.6495292,0 9.48570952,1.987 9.48570952,5.639 L9.48570952,9 L6,9 L6,13.266 L9.48570952,13.266 L9.48570952,24 L13.7593534,24 L13.7593534,13.267 L17.1040747,13.267 L17.6350304,9.001 L13.7583535,9.001 L13.7583535,6.062 C13.7593534,4.829 14.0913257,3.985 15.8091826,3.985 L15.8091826,3.985 Z" id="path-1"></path>
    </defs>
    <g id="Icons/Brand/Facebook" stroke="none" stroke-width="1" fill="none" fill-rule="evenodd">
        <polygon id="Base" points="-5.00000112e-08 -5.00003807e-08 24 -5.00003807e-08 24 24 -5.00000112e-08 24"></polygon>
        <mask id="mask-2" fill="white">
            <use xlink:href="#path-1"></use>
        </mask>
        <use id="Facebook" fill="#000000" fill-rule="nonzero" xlink:href="#path-1"></use>
        <rect id="↳-🎨-Color" fill="#9E9E9E" mask="url(#mask-2)" x="0" y="0" width="24" height="24"></rect>
    </g>
</svg>