<?xml version="1.0" encoding="UTF-8"?>
<svg width="24px" height="24px" viewBox="0 0 24 24" version="1.1" xmlns="http://www.w3.org/2000/svg" xmlns:xlink="http://www.w3.org/1999/xlink">
    <title>Icons/Action/favorite</title>
    <defs>
        <path d="M12,21.35 L10.55,20.03 C5.39999997,15.36 1.99999996,12.28 1.99999996,8.49999996 C1.99999996,5.41999997 4.41999997,2.99999996 7.49999996,2.99999996 C9.23999999,2.99999996 10.91,3.80999997 12,5.08999997 C13.09,3.80999997 14.76,2.99999996 16.5,2.99999996 C19.58,2.99999996 22,5.41999997 22,8.49999996 C22,12.28 18.6,15.36 13.45,20.04 L12,21.35 L12,21.35 Z" id="path-1"></path>
    </defs>
    <g id="Icons/Action/favorite" stroke="none" stroke-width="1" fill="none" fill-rule="evenodd">
        <polygon id="Base" points="-5.00000112e-08 -4.9999926e-08 24 -4.9999926e-08 24 24.0000001 -5.00000112e-08 24.0000001"></polygon>
        <mask id="mask-2" fill="white">
            <use xlink:href="#path-1"></use>
        </mask>
        <g id="Icon"></g>
        <rect id="↳-🎨-Color" fill="#9E9E9E" mask="url(#mask-2)" x="0" y="0" width="24" height="24"></rect>
    </g>
</svg>