<?xml version="1.0" encoding="UTF-8"?>
<svg width="24px" height="24px" viewBox="0 0 24 24" version="1.1" xmlns="http://www.w3.org/2000/svg" xmlns:xlink="http://www.w3.org/1999/xlink">
    <title>Icons/Action/favorite_border</title>
    <defs>
        <path d="M16.5,2.99999996 C14.76,2.99999996 13.09,3.80999997 12,5.08999997 C10.91,3.80999997 9.23999999,2.99999996 7.49999996,2.99999996 C4.41999997,2.99999996 1.99999996,5.41999997 1.99999996,8.49999996 C1.99999996,12.28 5.39999997,15.36 10.55,20.04 L12,21.35 L13.45,20.03 C18.6,15.36 22,12.28 22,8.49999996 C22,5.41999997 19.58,2.99999996 16.5,2.99999996 L16.5,2.99999996 Z M12.1,18.55 L12,18.65 L11.9,18.55 C7.13999998,14.24 3.99999997,11.39 3.99999997,8.49999997 C3.99999997,6.49999997 5.49999997,4.99999997 7.49999997,4.99999997 C9.03999999,4.99999997 10.54,5.98999997 11.07,7.35999998 L12.94,7.35999998 C13.46,5.98999997 14.96,4.99999997 16.5,4.99999997 C18.5,4.99999997 20,6.49999997 20,8.49999997 C20,11.39 16.86,14.24 12.1,18.55 L12.1,18.55 Z" id="path-1"></path>
    </defs>
    <g id="Icons/Action/favorite_border" stroke="none" stroke-width="1" fill="none" fill-rule="evenodd">
        <polygon id="Base" points="-5.00000112e-08 -4.9999926e-08 24 -4.9999926e-08 24 24.0000001 -5.00000112e-08 24.0000001"></polygon>
        <mask id="mask-2" fill="white">
            <use xlink:href="#path-1"></use>
        </mask>
        <g id="Icon" fill-rule="nonzero"></g>
        <rect id="↳-🎨-Color" fill="#9E9E9E" mask="url(#mask-2)" x="0" y="0" width="24" height="24"></rect>
    </g>
</svg>