<?xml version="1.0" encoding="UTF-8"?>
<svg width="24px" height="24px" viewBox="0 0 24 24" version="1.1" xmlns="http://www.w3.org/2000/svg" xmlns:xlink="http://www.w3.org/1999/xlink">
    <title>Icons/Navigation/fullscreen_exit</title>
    <defs>
        <path d="M4.99999997,16 L7.99999997,16 L7.99999997,19 L9.99999997,19 L9.99999997,14 L4.99999997,14 L4.99999997,16 L4.99999997,16 Z M7.99999997,7.99999997 L4.99999997,7.99999997 L4.99999997,9.99999997 L9.99999997,9.99999997 L9.99999997,4.99999997 L7.99999997,4.99999997 L7.99999997,7.99999997 L7.99999997,7.99999997 Z M14,19 L16,19 L16,16 L19,16 L19,14 L14,14 L14,19 L14,19 Z M16,7.99999997 L16,4.99999997 L14,4.99999997 L14,9.99999997 L19,9.99999997 L19,7.99999997 L16,7.99999997 L16,7.99999997 Z" id="path-1"></path>
    </defs>
    <g id="Icons/Navigation/fullscreen_exit" stroke="none" stroke-width="1" fill="none" fill-rule="evenodd">
        <polygon id="Base" points="-5.00000112e-08 -4.9999926e-08 24 -4.9999926e-08 24 24.0000001 -5.00000112e-08 24.0000001"></polygon>
        <mask id="mask-2" fill="white">
            <use xlink:href="#path-1"></use>
        </mask>
        <g id="Icon" fill-rule="nonzero"></g>
        <rect id="↳-🎨-Color" fill="#9E9E9E" mask="url(#mask-2)" x="0" y="0" width="24" height="24"></rect>
    </g>
</svg>