<?xml version="1.0" encoding="UTF-8"?>
<svg width="24px" height="24px" viewBox="0 0 24 24" version="1.1" xmlns="http://www.w3.org/2000/svg" xmlns:xlink="http://www.w3.org/1999/xlink">
    <title>Icons/Action/hourglass_empty</title>
    <defs>
        <path d="M5.99999998,1.99999996 L5.99999998,7.99999996 L6.00999998,7.99999996 L5.99999998,8.00999998 L9.99999998,12 L5.99999998,16 L6.00999998,16.01 L5.99999998,16.01 L5.99999998,22 L18,22 L18,16.01 L17.99,16.01 L18,16 L14,12 L18,8.00999998 L17.99,7.99999996 L18,7.99999996 L18,1.99999996 L5.99999998,1.99999996 L5.99999998,1.99999996 Z M16,16.5 L16,20 L7.99999998,20 L7.99999998,16.5 L12,12.5 L16,16.5 L16,16.5 Z M12,11.5 L7.99999998,7.49999997 L7.99999998,3.99999997 L16,3.99999997 L16,7.49999997 L12,11.5 L12,11.5 Z" id="path-1"></path>
    </defs>
    <g id="Icons/Action/hourglass_empty" stroke="none" stroke-width="1" fill="none" fill-rule="evenodd">
        <polygon id="Base" fill-rule="nonzero" points="-5.00000112e-08 -4.9999926e-08 24 -4.9999926e-08 24 24.0000001 -5.00000112e-08 24.0000001"></polygon>
        <mask id="mask-2" fill="white">
            <use xlink:href="#path-1"></use>
        </mask>
        <g id="Icon" fill-rule="nonzero"></g>
        <rect id="↳-🎨-Color" fill="#9E9E9E" mask="url(#mask-2)" x="0" y="0" width="24" height="24"></rect>
    </g>
</svg>