<?xml version="1.0" encoding="UTF-8"?>
<svg width="24px" height="24px" viewBox="0 0 24 24" version="1.1" xmlns="http://www.w3.org/2000/svg" xmlns:xlink="http://www.w3.org/1999/xlink">
    <title>Icons/Action/schedule</title>
    <defs>
        <path d="M11.99,1.99999996 C17.52,1.99999996 22,6.47999998 22,12 C22,17.52 17.52,22 11.99,22 C6.46999998,22 1.99999996,17.52 1.99999996,12 C1.99999996,6.47999998 6.46999998,1.99999996 11.99,1.99999996 Z M12,3.99999997 C7.57999998,3.99999997 3.99999997,7.57999998 3.99999997,12 C3.99999997,16.42 7.57999998,20 12,20 C16.42,20 20,16.42 20,12 C20,7.57999998 16.42,3.99999997 12,3.99999997 Z M12.5,6.99999998 L12.5,12.25 L17,14.92 L16.25,16.15 L11,13 L11,6.99999998 L12.5,6.99999998 Z" id="path-1"></path>
    </defs>
    <g id="Icons/Action/schedule" stroke="none" stroke-width="1" fill="none" fill-rule="evenodd">
        <polygon id="Base" fill-rule="nonzero" points="-4.99999828e-08 -4.9999926e-08 24.0000001 -4.9999926e-08 24.0000001 24.0000001 -4.99999828e-08 24.0000001"></polygon>
        <mask id="mask-2" fill="white">
            <use xlink:href="#path-1"></use>
        </mask>
        <g id="Icon" fill-rule="nonzero"></g>
        <rect id="↳-🎨-Color" fill="#9E9E9E" mask="url(#mask-2)" x="0" y="0" width="24" height="24"></rect>
    </g>
</svg>