<?xml version="1.0" encoding="UTF-8"?>
<svg width="24px" height="24px" viewBox="0 0 24 24" version="1.1" xmlns="http://www.w3.org/2000/svg" xmlns:xlink="http://www.w3.org/1999/xlink">
    <title>Icons/Action/stars_circle</title>
    <defs>
        <path d="M11.99,1.99999996 C6.46999998,1.99999996 1.99999996,6.47999998 1.99999996,12 C1.99999996,17.52 6.46999998,22 11.99,22 C17.52,22 22,17.52 22,12 C22,6.47999998 17.52,1.99999996 11.99,1.99999996 L11.99,1.99999996 Z M16.23,18 L12,15.45 L7.76999998,18 L8.88999999,13.19 L5.15999997,9.95999999 L10.08,9.53999999 L12,4.99999997 L13.92,9.52999999 L18.84,9.94999999 L15.11,13.18 L16.23,18 L16.23,18 Z" id="path-1"></path>
    </defs>
    <g id="Icons/Action/stars_circle" stroke="none" stroke-width="1" fill="none" fill-rule="evenodd">
        <polygon id="Base" points="-4.99999828e-08 -4.9999926e-08 24.0000001 -4.9999926e-08 24.0000001 24.0000001 -4.99999828e-08 24.0000001"></polygon>
        <mask id="mask-2" fill="white">
            <use xlink:href="#path-1"></use>
        </mask>
        <g id="Icon" fill-rule="nonzero"></g>
        <rect id="↳-🎨-Color" fill="#9E9E9E" mask="url(#mask-2)" x="0" y="0" width="24" height="24"></rect>
    </g>
</svg>