<?xml version="1.0" encoding="UTF-8"?>
<svg width="24px" height="24px" viewBox="0 0 24 24" version="1.1" xmlns="http://www.w3.org/2000/svg" xmlns:xlink="http://www.w3.org/1999/xlink">
    <title>Icons/Maps/my_location</title>
    <defs>
        <path d="M12,7.99999998 C9.78999999,7.99999998 7.99999998,9.78999999 7.99999998,12 C7.99999998,14.21 9.78999999,16 12,16 C14.21,16 16,14.21 16,12 C16,9.78999999 14.21,7.99999998 12,7.99999998 L12,7.99999998 Z M20.94,11 C20.48,6.82999998 17.17,3.51999996 13,3.05999996 L13,0.999999954 L11,0.999999954 L11,3.05999996 C6.82999998,3.51999996 3.51999996,6.82999998 3.05999996,11 L0.999999954,11 L0.999999954,13 L3.05999996,13 C3.51999996,17.17 6.82999998,20.48 11,20.94 L11,23 L13,23 L13,20.94 C17.17,20.48 20.48,17.17 20.94,13 L23,13 L23,11 L20.94,11 L20.94,11 Z M12,19 C8.12999998,19 4.99999997,15.87 4.99999997,12 C4.99999997,8.12999998 8.12999998,4.99999997 12,4.99999997 C15.87,4.99999997 19,8.12999998 19,12 C19,15.87 15.87,19 12,19 L12,19 Z" id="path-1"></path>
    </defs>
    <g id="Icons/Maps/my_location" stroke="none" stroke-width="1" fill="none" fill-rule="evenodd">
        <polygon id="Base" points="-4.9999997e-08 -4.9999926e-08 24.0000001 -4.9999926e-08 24.0000001 24.0000001 -4.9999997e-08 24.0000001"></polygon>
        <mask id="mask-2" fill="white">
            <use xlink:href="#path-1"></use>
        </mask>
        <g id="Icon" fill-rule="nonzero"></g>
        <rect id="↳-🎨-Color" fill="#9E9E9E" mask="url(#mask-2)" x="0" y="0" width="24" height="24"></rect>
    </g>
</svg>