<?xml version="1.0" encoding="UTF-8"?>
<svg width="24px" height="24px" viewBox="0 0 24 24" version="1.1" xmlns="http://www.w3.org/2000/svg" xmlns:xlink="http://www.w3.org/1999/xlink">
    <title>Icons/Action/visibility_off</title>
    <defs>
        <path d="M12,6.99999997 C14.76,6.99999997 17,9.23999999 17,12 C17,12.65 16.87,13.26 16.64,13.83 L19.56,16.75 C21.07,15.49 22.26,13.86 22.99,12 C21.26,7.60999998 16.99,4.49999997 11.99,4.49999997 C10.59,4.49999997 9.24999999,4.74999997 8.00999998,5.19999997 L10.17,7.35999998 C10.74,7.12999998 11.35,6.99999997 12,6.99999997 L12,6.99999997 Z M1.99999995,4.26999997 L4.27999997,6.54999998 L4.73999997,7.00999998 C3.07999996,8.29999998 1.77999996,10.02 0.999999954,12 C2.72999996,16.39 6.99999995,19.5 12,19.5 C13.55,19.5 15.03,19.2 16.38,18.66 L16.8,19.08 L19.73,22 L21,20.73 L3.26999996,2.99999996 L1.99999995,4.26999997 L1.99999995,4.26999997 Z M7.52999998,9.79999999 L9.07999999,11.35 C9.02999999,11.56 8.99999998,11.78 8.99999998,12 C8.99999998,13.66 10.34,15 12,15 C12.22,15 12.44,14.97 12.65,14.92 L14.2,16.47 C13.53,16.8 12.79,17 12,17 C9.23999999,17 6.99999998,14.76 6.99999998,12 C6.99999998,11.21 7.19999998,10.47 7.52999998,9.79999999 L7.52999998,9.79999999 Z M11.84,9.01999999 L14.99,12.17 L15.01,12.01 C15.01,10.35 13.67,9.00999999 12.01,9.00999999 L11.84,9.01999999 L11.84,9.01999999 Z" id="path-1"></path>
    </defs>
    <g id="Icons/Action/visibility_off" stroke="none" stroke-width="1" fill="none" fill-rule="evenodd">
        <polygon id="Base" points="-4.99999828e-08 -5.00003807e-08 24.0000001 -5.00003807e-08 24.0000001 24 -4.99999828e-08 24"></polygon>
        <mask id="mask-2" fill="white">
            <use xlink:href="#path-1"></use>
        </mask>
        <g id="Icon" fill-rule="nonzero"></g>
        <rect id="↳-🎨-Color" fill="#9E9E9E" mask="url(#mask-2)" x="0" y="0" width="24" height="24"></rect>
    </g>
</svg>